<svg width="220" height="220" viewBox="0 0 220 220" fill="none" xmlns="http://www.w3.org/2000/svg">
<path fill-rule="evenodd" clip-rule="evenodd" d="M136.36 0.955994H181.912C193.976 0.955994 203.284 3.92 209.836 9.848C216.388 15.776 219.664 24.356 219.664 35.588C219.664 43.596 217.688 50.408 213.736 56.024C209.784 61.64 204.168 65.644 196.888 68.036L219.04 110L196.888 151.964C204.168 154.356 209.784 158.36 213.736 163.976C217.688 169.592 219.664 176.404 219.664 184.412C219.664 195.644 216.388 204.224 209.836 210.152C203.284 216.08 193.976 219.044 181.912 219.044H136.36V218.941L106.081 218.499C100.676 218.42 96.3127 214.061 96.2278 208.657L94.789 117.063L2.74001 19.8871C-0.00759255 16.9864 -0.764939 12.7287 0.813875 9.05849C2.39269 5.38829 6.00462 3.0101 10 3.0101H74.813C77.6298 3.0101 80.316 4.19814 82.2112 6.28213L113.082 40.2289L128.963 6.71752C130.42 3.64377 133.241 1.65572 136.36 1.13449V0.955994ZM136.36 37.8116L118.371 75.7711L70.3903 23.0101H33.2465L111.987 106.136C113.709 107.954 114.686 110.352 114.725 112.856L116.073 198.643L136.36 198.939V110V37.8116ZM198.76 110L177.7 70.064H156.172V110V149.936H177.7L198.76 110ZM178.324 53.684C184.772 53.684 189.972 52.176 193.924 49.16C197.876 46.144 199.852 41.62 199.852 35.588C199.852 23.42 192.676 17.336 178.324 17.336H156.172V53.684H178.324ZM178.324 166.316C184.772 166.316 189.972 167.824 193.924 170.84C197.876 173.856 199.852 178.38 199.852 184.412C199.852 196.58 192.676 202.664 178.324 202.664H156.172V166.316H178.324Z" fill="black"/>
</svg>
